<?xml version="1.0" encoding="UTF-8" standalone="no"?>
<svg
   xmlns:dc="http://purl.org/dc/elements/1.1/"
   xmlns:cc="http://creativecommons.org/ns#"
   xmlns:rdf="http://www.w3.org/1999/02/22-rdf-syntax-ns#"
   xmlns:svg="http://www.w3.org/2000/svg"
   xmlns="http://www.w3.org/2000/svg"
   xmlns:sodipodi="http://sodipodi.sourceforge.net/DTD/sodipodi-0.dtd"
   xmlns:inkscape="http://www.inkscape.org/namespaces/inkscape"
   inkscape:version="1.0 (4035a4f, 2020-05-01)"
   sodipodi:docname="manhole.svg"
   id="svg8"
   version="1.1"
   viewBox="0 0 4.2333333 4.2333333"
   height="16"
   width="16">
  <defs
     id="defs841" />
  <sodipodi:namedview
     inkscape:current-layer="svg8"
     inkscape:window-maximized="0"
     inkscape:window-y="23"
     inkscape:window-x="71"
     inkscape:cy="7.8497171"
     inkscape:cx="8"
     inkscape:zoom="48.5"
     showgrid="false"
     id="namedview839"
     inkscape:window-height="984"
     inkscape:window-width="1593"
     inkscape:pageshadow="2"
     inkscape:pageopacity="0"
     guidetolerance="10"
     gridtolerance="10"
     objecttolerance="10"
     borderopacity="1"
     bordercolor="#666666"
     pagecolor="#ffffff"
     inkscape:document-rotation="0" />
  <metadata
     id="metadata5">
    <rdf:RDF>
      <cc:Work
         rdf:about="">
        <dc:format>image/svg+xml</dc:format>
        <dc:type
           rdf:resource="http://purl.org/dc/dcmitype/StillImage" />
      </cc:Work>
    </rdf:RDF>
  </metadata>
  <path
     id="rect887"
     style="fill:#ffffff;stroke:#000001;stroke-width:0.0101963"
     d="M 0.0055535,-0.00535716 H 4.2386906 V 4.2441455 H 0.0055535 Z" />
  <g
     transform="matrix(0.01050138,0,0,0.01068668,0.07990882,0.03286557)"
     id="g910"
     style="fill:#000000">
    <g
       id="g851"
       style="fill:#000000">
      <g
         id="g849"
         style="fill:#000000">
        <path
           d="m 194.99,30.276 c -90.824,0 -164.714,73.891 -164.714,164.715 0,90.824 73.891,164.714 164.714,164.714 90.823,0 164.714,-73.891 164.714,-164.714 C 359.705,104.167 285.814,30.276 194.99,30.276 Z m 0,314.429 c -82.553,0 -149.714,-67.162 -149.714,-149.714 0,-82.553 67.162,-149.715 149.714,-149.715 82.553,0 149.714,67.162 149.714,149.715 10e-4,82.552 -67.161,149.714 -149.714,149.714 z"
           id="path843"
           style="fill:#000000" />
        <path
           d="M 320.337,213.328 H 280.008 V 176.65 h 40.329 c 4.143,0 7.5,-3.358 7.5,-7.5 0,-4.142 -3.357,-7.5 -7.5,-7.5 h -40.329 v -36.67 h 16.776 c 4.143,0 7.5,-3.358 7.5,-7.5 0,-4.142 -3.357,-7.5 -7.5,-7.5 H 280.008 V 93.202 c 0,-4.142 -3.357,-7.5 -7.5,-7.5 -4.143,0 -7.5,3.358 -7.5,7.5 v 16.777 H 228.33 V 69.65 c 0,-4.142 -3.357,-7.5 -7.5,-7.5 -4.143,0 -7.5,3.358 -7.5,7.5 v 40.329 H 176.652 V 69.65 c 0,-4.142 -3.358,-7.5 -7.5,-7.5 -4.142,0 -7.5,3.358 -7.5,7.5 v 40.329 h -36.67 V 93.194 c 0,-4.142 -3.358,-7.5 -7.5,-7.5 -4.142,0 -7.5,3.358 -7.5,7.5 v 16.785 H 93.196 c -4.142,0 -7.5,3.358 -7.5,7.5 0,4.142 3.358,7.5 7.5,7.5 h 16.785 v 36.67 H 69.652 c -4.142,0 -7.5,3.358 -7.5,7.5 0,4.142 3.358,7.5 7.5,7.5 h 40.329 v 36.678 H 69.652 c -4.142,0 -7.5,3.358 -7.5,7.5 0,4.142 3.358,7.5 7.5,7.5 h 40.329 v 36.678 H 93.196 c -4.142,0 -7.5,3.358 -7.5,7.5 0,4.142 3.358,7.5 7.5,7.5 h 16.785 v 16.785 c 0,4.142 3.358,7.5 7.5,7.5 4.142,0 7.5,-3.358 7.5,-7.5 v -16.785 h 36.67 v 40.329 c 0,4.142 3.358,7.5 7.5,7.5 4.142,0 7.5,-3.358 7.5,-7.5 v -40.329 h 36.678 v 40.329 c 0,4.142 3.357,7.5 7.5,7.5 4.143,0 7.5,-3.358 7.5,-7.5 v -40.329 h 36.679 v 16.777 c 0,4.142 3.357,7.5 7.5,7.5 4.143,0 7.5,-3.358 7.5,-7.5 v -16.777 h 16.776 c 4.143,0 7.5,-3.358 7.5,-7.5 0,-4.142 -3.357,-7.5 -7.5,-7.5 h -16.776 v -36.678 h 40.329 c 4.143,0 7.5,-3.358 7.5,-7.5 0,-4.142 -3.357,-7.499 -7.5,-7.499 z m -55.329,0 H 228.33 V 176.65 h 36.679 v 36.678 z m -51.678,0 H 176.652 V 176.65 h 36.678 z m 51.678,-88.349 v 36.67 H 228.33 v -36.67 c 0,0 36.678,0 36.678,0 z m -51.678,0 v 36.67 h -36.678 v -36.67 c 0,0 36.678,0 36.678,0 z m -88.349,0 h 36.67 v 36.67 h -36.67 z m 0,51.67 h 36.67 v 36.678 h -36.67 z m 0,88.357 v -36.678 h 36.67 v 36.678 z m 51.67,0 v -36.678 h 36.678 v 36.678 z m 88.357,0 H 228.33 v -36.678 h 36.679 v 36.678 z"
           id="path845"
           style="fill:#000000" />
        <path
           d="m 352.382,309.953 c 23.625,-32.257 37.599,-72.006 37.599,-114.962 0,-42.958 -13.975,-82.708 -37.602,-114.966 L 366.81,65.594 c 2.929,-2.929 2.929,-7.678 0,-10.606 l -31.819,-31.82 c -2.929,-2.929 -7.677,-2.929 -10.607,0 L 309.953,37.599 C 277.695,13.973 237.947,0 194.99,0 152.033,0 112.285,13.974 80.028,37.599 L 65.596,23.167 c -2.929,-2.929 -7.678,-2.929 -10.606,0 l -31.82,31.82 c -2.929,2.929 -2.929,7.678 0,10.606 L 37.601,80.024 C 13.974,112.283 0,152.033 0,194.991 0,237.948 13.973,277.696 37.599,309.953 L 23.17,324.381 c -1.407,1.406 -2.197,3.314 -2.197,5.303 0,1.989 0.79,3.897 2.197,5.303 l 31.82,31.82 c 1.464,1.465 3.384,2.197 5.303,2.197 1.919,0 3.839,-0.732 5.303,-2.197 l 14.428,-14.428 c 32.258,23.627 72.008,37.602 114.966,37.602 42.958,0 82.708,-13.975 114.966,-37.602 l 14.428,14.427 c 1.464,1.465 3.384,2.197 5.303,2.197 1.919,0 3.839,-0.732 5.304,-2.197 l 31.819,-31.82 c 2.929,-2.929 2.929,-7.678 0,-10.606 z M 329.687,39.077 350.9,60.291 342.998,68.193 C 336.478,60.593 329.385,53.5 321.785,46.98 Z M 39.08,60.291 60.293,39.078 68.195,46.98 c -7.6,6.52 -14.693,13.613 -21.214,21.213 z m 21.213,290.606 -21.213,-21.213 7.899,-7.899 c 6.52,7.6 13.613,14.693 21.213,21.214 z M 15,194.991 C 15,95.744 95.743,15 194.99,15 c 99.248,0 179.991,80.744 179.991,179.991 0,99.247 -80.743,179.99 -179.991,179.99 C 95.743,374.981 15,294.238 15,194.991 Z m 314.687,155.906 -7.899,-7.898 c 7.6,-6.52 14.693,-13.613 21.213,-21.214 l 7.899,7.898 z"
           id="path847"
           style="fill:#000000" />
      </g>
    </g>
    <g
       id="g853"
       style="fill:#000000" />
    <g
       id="g855"
       style="fill:#000000" />
    <g
       id="g857"
       style="fill:#000000" />
    <g
       id="g859"
       style="fill:#000000" />
    <g
       id="g861"
       style="fill:#000000" />
    <g
       id="g863"
       style="fill:#000000" />
    <g
       id="g865"
       style="fill:#000000" />
    <g
       id="g867"
       style="fill:#000000" />
    <g
       id="g869"
       style="fill:#000000" />
    <g
       id="g871"
       style="fill:#000000" />
    <g
       id="g873"
       style="fill:#000000" />
    <g
       id="g875"
       style="fill:#000000" />
    <g
       id="g877"
       style="fill:#000000" />
    <g
       id="g879"
       style="fill:#000000" />
    <g
       id="g881"
       style="fill:#000000" />
  </g>
</svg>
