<?xml version="1.0" encoding="UTF-8" standalone="no"?>
<svg
   xmlns:dc="http://purl.org/dc/elements/1.1/"
   xmlns:cc="http://creativecommons.org/ns#"
   xmlns:rdf="http://www.w3.org/1999/02/22-rdf-syntax-ns#"
   xmlns:svg="http://www.w3.org/2000/svg"
   xmlns="http://www.w3.org/2000/svg"
   xmlns:sodipodi="http://sodipodi.sourceforge.net/DTD/sodipodi-0.dtd"
   xmlns:inkscape="http://www.inkscape.org/namespaces/inkscape"
   inkscape:version="1.0 (4035a4f, 2020-05-01)"
   sodipodi:docname="public_toilet.svg"
   width="16"
   height="16"
   viewBox="0 0 4.2333333 4.2333333"
   version="1.1"
   id="svg8">
  <defs
     id="defs841" />
  <sodipodi:namedview
     inkscape:current-layer="svg8"
     inkscape:window-maximized="0"
     inkscape:window-y="23"
     inkscape:window-x="0"
     inkscape:cy="11.598862"
     inkscape:cx="9.8973942"
     inkscape:zoom="25.959138"
     showgrid="false"
     id="namedview839"
     inkscape:window-height="917"
     inkscape:window-width="1484"
     inkscape:pageshadow="2"
     inkscape:pageopacity="0"
     guidetolerance="10"
     gridtolerance="10"
     objecttolerance="10"
     borderopacity="1"
     bordercolor="#666666"
     pagecolor="#ffffff"
     inkscape:document-rotation="0" />
  <metadata
     id="metadata5">
    <rdf:RDF>
      <cc:Work
         rdf:about="">
        <dc:format>image/svg+xml</dc:format>
        <dc:type
           rdf:resource="http://purl.org/dc/dcmitype/StillImage" />
      </cc:Work>
    </rdf:RDF>
  </metadata>
  <path
     d="M -0.0101923,0 H 4.2603813 V 4.2399969 H -0.0101923 Z"
     style="fill:#ffffff;stroke:#000001;stroke-width:0.03"
     id="rect870" />
  <g
     transform="matrix(0.00776365,0,0,0.00791679,0.14779469,0.09331547)"
     id="g900">
    <g
       fill-rule="evenodd"
       id="g869">
      <path
         d="m 134.95312,102.94141 c 0,25.92187 -21.01562,46.9375 -46.941401,46.9375 -25.921875,0 -46.9375,-21.01563 -46.9375,-46.9375 C 41.074219,77.015625 62.089844,56 88.011719,56 113.9375,56 134.95312,77.015625 134.95312,102.94141 Z m 0,0"
         fill="#b0e7f7"
         id="path859" />
      <path
         d="m 158.65234,180.72266 -49.97265,-28.55469 c -2.28125,-1.44922 -4.98828,-2.28906 -7.89063,-2.28906 H 75.238281 v 0.0117 c -2.484375,0 -5.003906,0.625 -7.3125,1.94922 L 17.375,180.72266 l 0.01953,0.0352 c -4.507812,2.58203 -7.5,7.48047 -7.390625,13.03906 l 3.570313,152.72266 c 0.04687,5.91406 3.691406,11.46094 9.5625,13.64844 l 28.945312,10.78125 0.132813,69.03515 c -0.03516,0.41797 -0.05469,0.84375 -0.05469,1.27344 0,8.14063 6.601563,14.74219 14.742188,14.74219 h 42.218749 v -0.0586 c 8.10938,0 14.6875,-6.57422 14.6875,-14.6836 l 0.13282,-70.30859 28.59765,-10.65235 c 5.66406,-1.94531 9.78516,-7.26562 9.91016,-13.60546 l 3.54687,-151.70313 c 0.5625,-5.60937 -2.13672,-11.28515 -7.34375,-14.26562 z m 0,0"
         fill="#b0e7f7"
         id="path861" />
      <path
         d="m 220.24609,30 v 452 c 0,11 9,20 20,20 11,0 20,-9 20,-20 V 30 c 0,-11 -9,-20 -20,-20 -11,0 -20,9 -20,20 z m 0,0"
         fill="#f8f8f8"
         id="path863" />
      <path
         d="m 349.38672,183.94531 -36.97656,152.89453 0.0156,0.004 c -1.76953,7.27734 2.26172,14.83984 9.48828,17.32812 l 49.15235,17.02344 0.13281,68.78906 c -0.0352,0.41797 -0.0547,0.83985 -0.0547,1.26954 0,8.14453 6.60156,14.74218 14.74219,14.74218 h 42.21484 v -0.0547 c 8.11328,0 14.6875,-6.57813 14.6875,-14.6875 l 0.13672,-70.0625 48.54297,-16.8086 c 7.46094,-2.19922 11.96094,-9.89844 10.11328,-17.54687 l -36.73047,-151.875 c -0.60547,-3.61328 -2.55078,-7.00391 -5.71875,-9.36719 l -30.10156,-22.44531 c -2.53125,-2.04297 -5.75391,-3.26953 -9.26172,-3.26953 h -25.55078 v 0.0117 c -3.06641,-0.004 -6.16406,0.94922 -8.80859,2.92579 l -30.55469,22.77734 0.0234,0.0273 c -2.65235,1.98047 -4.65625,4.85547 -5.49219,8.32422 z m 0,0"
         fill="#f5828c"
         id="path865" />
      <path
         d="m 453.93359,102.94141 c 0,25.92187 -21.01562,46.9375 -46.9375,46.9375 -25.92578,0 -46.9414,-21.01563 -46.9414,-46.9375 0,-25.925785 21.01562,-46.94141 46.9414,-46.94141 25.92188,0 46.9375,21.015625 46.9375,46.94141 z m 0,0"
         fill="#f5828c"
         id="path867" />
    </g>
    <path
       d="M 163.61328,172.04297 122.25,148.40234 c 13.77734,-10.39843 22.70312,-26.90625 22.70312,-45.46093 C 144.95312,71.542969 119.41016,46 88.011719,46 c -31.394531,0 -56.9375,25.542969 -56.9375,56.94141 0,18.55859 8.929687,35.0664 22.710937,45.46875 L 12.417969,172.08203 C 4.585938,176.57422 -0.171875,184.96875 0.00390625,194.03125 L 0.316406,207.41797 c 0.128906,5.52344 4.707032,9.88672 10.230469,9.76562 5.523437,-0.1289 9.894531,-4.71093 9.765625,-10.23047 L 20,193.60156 c -0.03906,-2.05078 1.199219,-3.5 2.359375,-4.16406 l 50.53125,-28.91797 c 0.726563,-0.41797 1.511719,-0.62891 2.347656,-0.62891 h 0.0039 l 25.546869,-0.0117 c 0.91797,0 1.76953,0.24609 2.53125,0.73046 0.12891,0.082 0.26172,0.16016 0.39844,0.23829 l 49.96875,28.55468 c 1.62109,0.92578 2.54687,2.72657 2.35937,4.58594 -0.0234,0.25391 -0.043,0.50781 -0.0469,0.76172 l -3.54688,151.74609 c -0.0469,2.26563 -1.62109,3.8125 -3.16406,4.34375 -0.0781,0.0274 -0.16015,0.0547 -0.23828,0.0859 l -28.59765,10.64844 c -3.90625,1.45703 -6.5,5.18359 -6.50782,9.35156 l -0.13672,70.32813 c 0,2.58203 -2.10156,4.6875 -4.69921,4.6875 l -42.207033,0.0547 c -2.613282,0 -4.742188,-2.125 -4.742188,-4.74218 0,-20.29297 -0.02344,-42.63672 -0.07813,-70.32422 -0.0078,-4.17188 -2.601562,-7.89844 -6.507812,-9.35157 L 26.628906,350.79687 c -2.09375,-0.78125 -3.042968,-2.75 -3.054687,-4.35937 0,-0.0508 -0.0039,-0.10547 -0.0039,-0.15625 l -1.386718,-59.35156 c -0.128906,-5.52344 -4.734375,-9.89063 -10.230469,-9.76563 -5.523437,0.12891 -9.894531,4.71094 -9.765625,10.23047 l 1.386719,59.28906 c 0.121093,10.13672 6.570312,19.3125 16.074219,22.85547 l 22.449218,8.35938 c 0.04297,24.51953 0.0625,44.79687 0.0625,63.35547 0,13.64453 11.101563,24.74218 24.757813,24.74218 l 42.203124,-0.0586 c 13.61329,0 24.6875,-11.07422 24.6875,-24.66406 l 0.1211,-63.375 21.99609,-8.19141 c 9.6875,-3.39453 16.32031,-12.54687 16.51953,-22.78125 l 3.54297,-151.37109 c 0.78516,-9.55078 -4.03516,-18.74219 -12.375,-23.51172 z M 88.015625,66 c 20.367185,0 36.937505,16.570312 36.937505,36.94141 0,20.36718 -16.57032,36.9375 -36.937505,36.9375 -20.371094,0 -36.941406,-16.57032 -36.941406,-36.9375 C 51.074219,82.574219 67.644531,66 88.015625,66 Z m 0,0"
       id="path871" />
    <path
       d="m 511.30078,334.48828 -2.82031,-11.66406 c -1.29688,-5.3711 -6.69922,-8.66797 -12.07031,-7.3711 -5.36719,1.29688 -8.66797,6.70313 -7.36719,12.07032 l 2.82031,11.66797 c 0.58984,2.43359 -0.82812,4.89453 -3.22266,5.60156 -0.14843,0.043 -0.29687,0.0898 -0.44531,0.14062 l -48.54297,16.8086 c -4.01953,1.39453 -6.71875,5.17578 -6.72656,9.42968 l -0.13672,70.08204 c 0,2.58593 -2.10156,4.6875 -4.69922,4.6875 L 385.88672,446 c -1.8125,0 -2.95703,-0.95313 -3.47656,-1.51953 -0.53125,-0.57813 -1.39844,-1.82031 -1.2461,-3.66016 0.0234,-0.28515 0.0352,-0.57031 0.0352,-0.85547 l -0.13281,-68.79297 c -0.008,-4.2539 -2.70704,-8.03515 -6.72657,-9.42968 l -49.17187,-17.02735 c -2.25781,-0.77734 -3.58594,-3.19531 -3.02344,-5.52343 l 36.96094,-152.89844 c 0.33203,-1.35938 1.13672,-2.19141 1.75781,-2.66016 l 30.53125,-22.80078 c 1.03906,-0.77734 2.10156,-0.94141 2.82422,-0.94141 h 0.008 l 25.54688,-0.0117 c 1.38281,0 2.38281,0.57031 2.97265,1.05078 0.10157,0.082 0.20703,0.16015 0.3086,0.23828 l 30.10156,22.4375 c 0.98047,0.73437 1.63281,1.80078 1.83594,3.00781 0.0391,0.23438 0.0859,0.46875 0.14453,0.69922 l 15.10156,62.45312 c 1.29688,5.36719 6.69531,8.66797 12.07031,7.3711 5.36719,-1.30078 8.66797,-6.70313 7.3711,-12.07031 l -15.03125,-62.15235 c -1.13282,-6.14844 -4.50391,-11.58203 -9.53516,-15.33984 l -24.80859,-18.49219 c 14.30468,-10.35547 23.63281,-27.17578 23.63281,-46.14062 0,-31.398441 -25.54297,-56.937504 -56.9375,-56.937504 -31.39453,0 -56.9375,25.539063 -56.9375,56.937504 0,18.96875 9.33203,35.78906 23.64062,46.14453 l -24.79687,18.51953 c -4.60156,3.4375 -7.88281,8.40234 -9.23438,13.98828 l -36.95703,152.88672 c -3.02734,12.4414 3.82813,24.97265 15.92969,29.14062 l 42.44141,14.69922 0.11718,61.3086 c -0.43359,6.74218 1.91797,13.41796 6.48829,18.38671 4.66406,5.07422 11.29687,7.98438 18.21484,7.98438 l 42.20312,-0.0586 c 13.60938,0 24.6875,-11.07422 24.6875,-24.66797 l 0.1211,-62.95703 41.63672,-14.41797 c 12.47265,-3.82422 19.82422,-16.6875 16.74609,-29.41016 z M 406.99609,66 c 20.36719,0 36.9375,16.570312 36.9375,36.94141 0,20.36718 -16.57031,36.9375 -36.9375,36.9375 -20.36718,0 -36.9375,-16.57032 -36.9375,-36.9375 C 370.05859,82.570312 386.62891,66 406.99609,66 Z m 0,0"
       id="path873" />
    <path
       d="m 240.24609,0 c -16.54297,0 -30,13.457031 -30,30 v 451.99609 c 0,16.54297 13.45703,30 30,30 16.54297,0 30,-13.45703 30,-30 V 30 c 0,-16.542969 -13.45703,-30 -30,-30 z m 10,482 c 0,5.51172 -4.48437,10 -10,10 -5.51172,0 -10,-4.48828 -10,-10 V 30 c 0,-5.515625 4.48828,-10 10,-10 5.51563,0 10,4.484375 10,10 z m 0,0"
       id="path875" />
    <path
       d="m 11.25,257.17578 c 5.523438,0 10,-4.47656 10,-10 v -0.008 c 0,-5.51953 -4.476562,-9.9961 -10,-9.9961 -5.523438,0 -10,4.48047 -10,10.00391 0,5.52344 4.476562,10 10,10 z m 0,0"
       id="path877" />
    <path
       d="m 486.60937,276.67969 c -5.30859,1.51562 -8.38281,7.05468 -6.86718,12.36718 1.25781,4.39063 5.26172,7.25391 9.61328,7.25391 0.90625,0 1.83203,-0.125 2.75,-0.38672 5.3125,-1.51953 8.38672,-7.05469 6.86719,-12.36328 v -0.008 c -1.51954,-5.3086 -7.05469,-8.37891 -12.36329,-6.86328 z m 0,0"
       id="path879" />
  </g>
</svg>
