<?xml version="1.0" encoding="UTF-8" standalone="no"?>
<svg
   xmlns:dc="http://purl.org/dc/elements/1.1/"
   xmlns:cc="http://creativecommons.org/ns#"
   xmlns:rdf="http://www.w3.org/1999/02/22-rdf-syntax-ns#"
   xmlns:svg="http://www.w3.org/2000/svg"
   xmlns="http://www.w3.org/2000/svg"
   xmlns:sodipodi="http://sodipodi.sourceforge.net/DTD/sodipodi-0.dtd"
   xmlns:inkscape="http://www.inkscape.org/namespaces/inkscape"
   inkscape:version="1.0beta2 (2b71d25, 2019-12-03)"
   sodipodi:docname="pump.svg"
   xml:space="preserve"
   viewBox="0 0 16 16"
   y="0px"
   x="0px"
   id="Layer_1"
   version="1.1"
   width="16"
   height="16"><metadata
   id="metadata874"><rdf:RDF><cc:Work
       rdf:about=""><dc:format>image/svg+xml</dc:format><dc:type
         rdf:resource="http://purl.org/dc/dcmitype/StillImage" /><dc:title /></cc:Work></rdf:RDF></metadata><defs
   id="defs872" /><sodipodi:namedview
   inkscape:current-layer="Layer_1"
   inkscape:window-maximized="1"
   inkscape:window-y="23"
   inkscape:window-x="0"
   inkscape:cy="9.4049808"
   inkscape:cx="10.566545"
   inkscape:zoom="29.137208"
   showgrid="false"
   id="namedview870"
   inkscape:window-height="855"
   inkscape:window-width="1440"
   inkscape:pageshadow="2"
   inkscape:pageopacity="0"
   guidetolerance="10"
   gridtolerance="10"
   objecttolerance="10"
   borderopacity="1"
   inkscape:document-rotation="0"
   bordercolor="#666666"
   pagecolor="#ffffff"
   showguides="false" />

<g
   id="g839">
</g>
<g
   id="g841">
</g>
<g
   id="g843">
</g>
<g
   id="g845">
</g>
<g
   id="g847">
</g>
<g
   id="g849">
</g>
<g
   id="g851">
</g>
<g
   id="g853">
</g>
<g
   id="g855">
</g>
<g
   id="g857">
</g>
<g
   id="g859">
</g>
<g
   id="g861">
</g>
<g
   id="g863">
</g>
<g
   id="g865">
</g>
<g
   id="g867">
</g>
<path
   d="M 15.795082,8.0235372 A 7.8214047,7.8434927 0 0 1 7.9736793,15.867031 7.8214047,7.8434927 0 0 1 0.15227428,8.0235372 7.8214047,7.8434927 0 0 1 7.9736793,0.18004504 7.8214047,7.8434927 0 0 1 15.795082,8.0235372 Z"
   style="fill:#a9ffb3;stroke:#000001;stroke-width:0.18897638;fill-opacity:1;stroke-miterlimit:4;stroke-dasharray:none"
   id="path876"
   inkscape:connector-curvature="0" /><g
   style="fill:#ffffff"
   id="g837"
   transform="matrix(0.02350624,0,0,0.01850429,1.7125454,3.2586178)"><g
     style="fill:#ffffff"
     id="g835"><path
       style="fill:#ffffff"
       d="M 493.137,59.284 C 503.538,59.284 512,50.821 512,40.421 V 18.863 C 512,8.463 503.537,0 493.137,0 H 374.568 c -10.401,0 -18.863,8.463 -18.863,18.863 v 21.558 c 0,10.401 8.463,18.863 18.863,18.863 h 2.695 v 48.505 h -7.211 C 367.02,101.421 360.52,97.01 353.01,97.01 h -21.558 c -10.401,0 -18.863,8.463 -18.863,18.863 v 2.695 h -13.474 c -10.401,0 -18.863,8.463 -18.863,18.863 v 10.779 c 0,10.401 8.463,18.863 18.863,18.863 h 13.474 v 16.168 h -48.505 v -13.474 c 0,-16.345 -13.297,-29.642 -29.642,-29.642 H 29.642 C 13.297,140.126 0,153.423 0,169.768 v 172.463 c 0,16.345 13.297,29.642 29.642,29.642 h 204.8 c 16.345,0 29.642,-13.297 29.642,-29.642 v -13.474 h 48.505 v 16.168 h -13.474 c -10.401,0 -18.863,8.463 -18.863,18.863 v 10.779 c 0,10.401 8.463,18.863 18.863,18.863 h 13.474 v 2.695 c 0,10.401 8.463,18.863 18.863,18.863 h 21.558 c 7.51,0 14.009,-4.411 17.042,-10.779 h 7.211 v 48.505 h -2.695 c -10.401,0 -18.863,8.463 -18.863,18.863 v 21.558 c 0,10.401 8.463,18.863 18.863,18.863 h 118.568 c 10.401,0 18.863,-8.463 18.863,-18.863 v -21.558 c 0,-10.401 -8.463,-18.863 -18.863,-18.863 h -2.695 v -48.505 h 2.695 c 10.401,0 18.863,-8.463 18.863,-18.863 V 126.653 c 0,-10.401 -8.463,-18.863 -18.863,-18.863 h -2.695 V 59.284 Z M 247.916,342.232 c 0,7.43 -6.044,13.474 -13.474,13.474 H 59.284 v -26.947 h 188.632 z m 0,-29.643 H 59.284 v -26.947 h 188.632 z m 0,-43.115 H 59.284 v -26.947 h 188.632 z m 0,-43.116 H 59.284 v -2.695 c 0,-4.465 -3.62,-8.084 -8.084,-8.084 -4.464,0 -8.084,3.62 -8.084,8.084 V 355.705 H 29.642 c -7.43,0 -13.474,-6.044 -13.474,-13.474 V 169.768 c 0,-7.43 6.044,-13.474 13.474,-13.474 h 13.474 v 35.032 c 0,4.465 3.62,8.084 8.084,8.084 h 196.716 z m 0,-43.116 H 59.284 v -26.947 h 175.158 c 7.43,0 13.474,6.044 13.474,13.474 z m 64.673,194.021 h -13.474 c -1.485,0 -2.695,-1.209 -2.695,-2.695 v -10.779 c 0,-1.485 1.209,-2.695 2.695,-2.695 h 13.474 z m 0,-64.674 H 264.084 V 199.411 h 48.505 z m 0,-161.684 h -13.474 c -1.485,0 -2.695,-1.209 -2.695,-2.695 v -10.779 c 0,-1.485 1.209,-2.695 2.695,-2.695 h 13.474 z m 180.548,317.979 c 1.485,0 2.695,1.209 2.695,2.695 v 21.558 c 0,1.485 -1.209,2.695 -2.695,2.695 H 374.568 c -1.485,0 -2.695,-1.209 -2.695,-2.695 v -21.558 c 0,-1.485 1.209,-2.695 2.695,-2.695 h 32.337 c 4.465,0 8.084,-3.62 8.084,-8.084 0,-4.464 -3.62,-8.084 -8.084,-8.084 h -13.474 v -48.505 h 80.842 v 48.505 h -35.032 c -4.465,0 -8.084,3.62 -8.084,8.084 0,4.464 3.62,8.084 8.084,8.084 z m 0,-344.926 c 1.485,0 2.695,1.209 2.695,2.695 v 258.695 c 0,1.485 -1.209,2.695 -2.695,2.695 H 371.874 V 202.105 c 0,-4.465 -3.62,-8.084 -8.084,-8.084 -4.465,0 -8.084,3.62 -8.084,8.084 v 194.021 c 0,1.485 -1.209,2.695 -2.695,2.695 h -21.558 c -1.485,0 -2.695,-1.209 -2.695,-2.695 V 115.874 c 0,-1.485 1.209,-2.695 2.695,-2.695 h 21.558 c 1.485,0 2.695,1.209 2.695,2.695 v 53.895 c 0,4.465 3.62,8.084 8.084,8.084 4.465,0 8.084,-3.62 8.084,-8.084 V 123.958 Z M 439.242,59.284 h 35.032 v 48.505 H 393.432 V 59.284 h 13.474 c 4.465,0 8.084,-3.62 8.084,-8.084 0,-4.464 -3.62,-8.084 -8.084,-8.084 h -32.337 c -1.485,0 -2.695,-1.209 -2.695,-2.695 V 18.863 c 0,-1.485 1.209,-2.695 2.695,-2.695 h 118.568 c 1.485,0 2.695,1.209 2.695,2.695 v 21.558 c 0,1.485 -1.209,2.695 -2.695,2.695 h -53.895 c -4.465,0 -8.084,3.62 -8.084,8.084 0,4.464 3.619,8.084 8.084,8.084 z"
       id="path833"
       inkscape:connector-curvature="0" /></g></g><path
   inkscape:connector-curvature="0"
   id="path860"
   d="M 10.985254,4.8026181 V 4.3736133 h 0.188762 c 0.21786,0 0.334658,-0.079767 0.301645,-0.2060083 -0.02891,-0.1105639 -0.144528,-0.1371954 -0.595603,-0.1371954 h -0.40961 V 3.8073271 3.5842446 h 1.441456 1.441456 v 0.2230825 0.2230825 h -0.667013 c -0.366858,0 -0.706629,0.015062 -0.755049,0.033471 -0.111208,0.042281 -0.125146,0.2188156 -0.02165,0.2742049 0.03651,0.01954 0.260451,0.035528 0.497645,0.035528 h 0.431261 V 4.8026183 5.231623 h -0.92665 -0.92665 z"
   style="fill:#cccccc;stroke:#000001;stroke-width:0.0182898" /><path
   inkscape:connector-curvature="0"
   id="path862"
   d="m 9.456625,10.577022 c -0.00901,-0.0236 -0.012384,-1.2012135 -0.0075,-2.6169291 l 0.00887,-2.5740284 0.3003033,-0.00992 0.3003027,-0.00992 V 5.911375 c 0,0.484539 0.007,0.5514574 0.06276,0.6019427 0.08289,0.075014 0.221559,0.072185 0.292282,-0.00596 0.04656,-0.051451 0.0568,-0.1411455 0.0568,-0.4976455 V 5.5748266 h 1.441456 1.441456 V 7.9944133 10.414 H 11.911904 10.470448 V 8.6705247 c 0,-1.3102758 -0.01023,-1.7537083 -0.04118,-1.7846597 -0.05328,-0.053281 -0.276194,-0.053281 -0.329475,0 -0.03101,0.031012 -0.04119,0.4972642 -0.04119,1.8876208 v 1.8464362 h -0.2928 c -0.2026252,0 -0.2978442,-0.01321 -0.309178,-0.0429 z"
   style="fill:#cccccc;stroke:#000001;stroke-width:0.0182898" /><path
   inkscape:connector-curvature="0"
   id="path864"
   d="M 7.9307399,7.9944133 V 6.9476417 H 8.479866 9.0289921 V 7.9944133 9.0411848 H 8.479866 7.9307399 Z"
   style="fill:#cccccc;stroke:#000001;stroke-width:0.0182898" /><path
   inkscape:connector-curvature="0"
   id="path866"
   d="M 8.6857883,5.9008702 V 5.7807489 H 8.8573902 9.0289921 V 5.9008702 6.0209915 H 8.8573902 8.6857883 Z"
   style="fill:#cccccc;stroke:#000001;stroke-width:0.0182898" /><path
   inkscape:connector-curvature="0"
   id="path868"
   d="M 3.125887,6.3985157 V 6.158273 h 2.0541013 c 1.4112163,0 2.0881552,0.011871 2.1629084,0.03793 0.1328614,0.046316 0.1759987,0.1205851 0.1759987,0.3030172 V 6.6387583 H 5.3223912 3.125887 Z"
   style="fill:#cccccc;stroke:#000001;stroke-width:0.0182898" /><path
   inkscape:connector-curvature="0"
   id="path870"
   d="M 2.2801299,9.7965221 C 2.094231,9.7215025 2.0962756,9.7416078 2.0962756,7.9886906 V 6.3680229 l 0.081177,-0.094374 c 0.070037,-0.081423 0.1124257,-0.096364 0.3088834,-0.108873 l 0.2277065,-0.014499 v 0.357498 c 0,0.2322936 0.014424,0.3719219 0.041184,0.3986826 0.031234,0.031234 0.6116654,0.041184 2.4024265,0.041184 H 7.518895 V 7.1878844 7.428127 H 5.3305295 3.1421637 L 3.108285,7.3513907 C 3.0576668,7.2367386 2.9116255,7.1972869 2.8025031,7.2687866 l -0.088461,0.057962 v 1.2519026 1.2519026 l -0.180182,-0.00218 c -0.0991,-0.0012 -0.2132789,-0.015532 -0.2537306,-0.031856 z"
   style="fill:#cccccc;stroke:#000001;stroke-width:0.0182898" /><path
   inkscape:connector-curvature="0"
   id="path872"
   d="M 3.125887,7.9944133 V 7.7713308 H 5.3223912 7.5188954 V 7.9944133 8.2174957 H 5.3223912 3.125887 Z"
   style="fill:#cccccc;stroke:#000001;stroke-width:0.0182898" /><path
   inkscape:connector-curvature="0"
   id="path874"
   d="M 3.125887,8.8009421 V 8.5606995 H 5.3223912 7.5188954 V 8.8009421 9.0411848 H 5.3223912 3.125887 Z"
   style="fill:#cccccc;stroke:#000001;stroke-width:0.0182898" /><path
   inkscape:connector-curvature="0"
   id="path877"
   d="M 3.125887,9.5903108 V 9.3500682 h 2.1965042 2.1965042 v 0.1344745 c 0,0.1823514 -0.025747,0.2368534 -0.1397361,0.2957996 -0.082082,0.042446 -0.4184708,0.050211 -2.1751851,0.050211 H 3.125887 Z"
   style="fill:#cccccc;stroke:#000001;stroke-width:0.0182898" /><path
   inkscape:connector-curvature="0"
   id="path879"
   d="m 10.311829,12.66415 c -0.176012,-0.07661 -0.218905,-0.171177 -0.218905,-0.482651 0,-0.200034 0.01547,-0.298536 0.05597,-0.356353 0.06363,-0.09085 0.24316,-0.175612 0.371936,-0.175612 h 0.0869 v -0.463326 -0.463325 h -0.120121 c -0.06607,0 -0.120121,0.0162 -0.120121,0.036 0,0.08775 -0.289403,0.16841 -0.6069527,0.16917 -0.4368568,10e-4 -0.6317993,-0.08839 -0.6810082,-0.31244 -0.020905,-0.09518 -0.028857,-0.09865 -0.2259651,-0.09865 -0.3654746,0 -0.5452969,-0.141473 -0.5452969,-0.429005 0,-0.2830127 0.1857148,-0.4290044 0.5457328,-0.4290044 H 9.0633124 V 9.4873497 9.3157478 H 8.479866 7.8964196 v 0.200847 c 0,0.2543215 -0.089239,0.3964573 -0.3251276,0.5178462 l -0.1706855,0.08784 H 4.8085017 c -2.5879925,0 -2.5923225,-1.03e-4 -2.7293862,-0.07388 C 1.9144042,9.9597532 1.8049351,9.8476262 1.755358,9.716778 1.7049027,9.5836118 1.7049027,6.4052147 1.755358,6.2720485 1.8074139,6.1346581 1.9202936,6.021878 2.0791155,5.948577 2.2087262,5.8887578 2.3623201,5.8851754 4.8279278,5.8844637 L 7.4394585,5.88371 7.5907184,5.9634871 C 7.8086878,6.0784483 7.8964196,6.2244506 7.8964196,6.4722318 V 6.6730787 H 8.479866 9.0633124 V 6.5014768 6.3298749 H 8.8562878 c -0.3682652,0 -0.5480237,-0.1407189 -0.5480237,-0.4290047 0,-0.2821446 0.1858857,-0.4290047 0.5430057,-0.4290047 0.1996317,0 0.2073184,-0.00332 0.2282563,-0.098651 0.049067,-0.2234009 0.252404,-0.3136063 0.7042878,-0.3124396 0.2944371,7.601e-4 0.5836731,0.084592 0.5836731,0.1691701 0,0.019799 0.05405,0.035998 0.120121,0.035998 h 0.120121 V 4.8026181 4.339293 h -0.0869 c -0.128776,0 -0.308304,-0.084765 -0.371936,-0.175613 -0.07855,-0.1121479 -0.07855,-0.6005579 0,-0.7127057 0.118964,-0.1698461 0.17686,-0.1756131 1.763014,-0.1756131 1.586153,0 1.644049,0.00577 1.763014,0.1756131 0.07855,0.1121478 0.07855,0.6005578 0,0.7127057 -0.06363,0.090847 -0.24316,0.175613 -0.371936,0.175613 h -0.0869 v 0.4633251 0.4633251 h 0.08919 c 0.119221,0 0.31312,0.09491 0.375319,0.1837125 0.04305,0.061459 0.05029,0.4280777 0.05029,2.5447576 0,2.2307227 -0.0055,2.4807807 -0.05597,2.5528567 -0.06363,0.09085 -0.24316,0.175613 -0.371936,0.175613 h -0.0869 v 0.463325 0.463326 h 0.08919 c 0.119221,0 0.31312,0.09491 0.375319,0.183712 0.07306,0.104307 0.06908,0.597874 -0.0057,0.704606 -0.119173,0.170144 -0.175745,0.175712 -1.770492,0.17427 -1.173928,-0.0011 -1.507927,-0.01112 -1.592597,-0.04797 z m 3.068775,-0.474071 -0.01008,-0.248822 -0.703568,-0.01716 c -0.386962,-0.0094 -0.722873,-0.02965 -0.746468,-0.04493 -0.06493,-0.04202 -0.05138,-0.154044 0.02348,-0.19411 0.03651,-0.01954 0.260452,-0.03553 0.497645,-0.03553 h 0.431261 v -0.463326 -0.463325 h -0.96097 -0.960971 v 0.463325 0.463326 h 0.199058 c 0.205705,0 0.281428,0.03846 0.281428,0.142938 0,0.10397 -0.118502,0.131625 -0.56403,0.131625 h -0.431261 v 0.257402 0.257403 h 1.477279 1.47728 z m -3.28768,-3.3570727 c 0,-1.1897918 0.01232,-1.8442525 0.03553,-1.8876208 0.04793,-0.089554 0.22422,-0.089554 0.272148,0 0.02313,0.043225 0.03553,0.6658414 0.03553,1.7846597 V 10.44832 h 1.475776 1.475776 V 7.9944133 5.5405062 h -1.475776 -1.475776 v 0.4437135 c 0,0.4693306 -0.02559,0.5515775 -0.171602,0.5515775 -0.15188,0 -0.171602,-0.075225 -0.171602,-0.6545387 V 5.3345839 H 9.7705521 c -0.2623007,0 -0.3262536,0.010116 -0.3432038,0.054288 -0.027221,0.070939 -0.027221,5.1401441 0,5.2110831 0.01695,0.04417 0.080903,0.05429 0.3432038,0.05429 H 10.092924 Z M 9.0633124,10.086244 V 9.9300891 l -0.1973421,0.010293 c -0.1883403,0.00982 -0.1978505,0.01473 -0.2084816,0.1075729 -0.0193,0.168546 0.00947,0.194443 0.2159847,0.194443 h 0.189839 z M 2.7483628,8.594284 V 7.3236942 l 0.084395,-0.038453 c 0.067583,-0.030793 0.1017669,-0.02707 0.1716019,0.018687 0.047964,0.031427 0.087207,0.07995 0.087207,0.1078295 0,0.044186 0.2862252,0.05069 2.2308246,0.05069 H 7.5532158 V 7.1878844 6.9133213 h -2.336042 c -1.5446604,0 -2.3585311,-0.012036 -2.4024265,-0.035528 -0.05914,-0.031651 -0.066384,-0.074722 -0.066384,-0.3946845 V 6.1239526 H 2.5584984 c -0.2201946,0 -0.4065042,0.067491 -0.4594603,0.1664401 -0.047678,0.089088 -0.051747,3.2568794 -0.00434,3.3815601 0.048073,0.1264415 0.1937378,0.1899747 0.439166,0.1915469 l 0.2145023,0.00137 z m 4.7163033,1.1702264 c 0.073686,-0.069237 0.08855,-0.1138842 0.08855,-0.2659829 V 9.3157478 H 5.3223912 3.0915666 v 0.2753195 0.2753191 l 2.1422749,-0.00934 2.1422746,-0.00934 z m 0.08855,-0.9635683 V 8.5263791 H 5.3223912 3.0915666 v 0.274563 0.2745631 H 5.3223912 7.5532158 Z M 9.0633124,7.9944133 V 6.9133213 H 8.479866 7.8964196 v 1.081092 1.0810919 H 8.479866 9.0633124 Z m -1.5100966,0 V 7.7370104 H 5.3223912 3.0915666 v 0.2574029 0.2574028 h 2.2308246 2.2308246 z m 0,-1.5041142 c 0,-0.1520989 -0.014864,-0.1967457 -0.08855,-0.2659829 l -0.08855,-0.083203 -2.1422746,-0.00934 -2.1422749,-0.00934 V 6.3977594 6.6730787 H 5.3223912 7.5532158 Z M 9.0633124,5.9008702 V 5.7464285 H 8.8573902 8.6514679 V 5.9008702 6.0553119 H 8.8573902 9.0633124 Z M 12.872874,4.8026181 V 4.339293 h -0.431261 c -0.451592,0 -0.56403,-0.027367 -0.56403,-0.1372815 0,-0.1188979 0.11,-0.1372816 0.821433,-0.1372816 H 13.38768 V 3.8073271 3.5499243 h -1.475776 -1.475776 v 0.2574028 0.2574028 h 0.431261 c 0.451592,0 0.56403,0.027367 0.56403,0.1372816 0,0.091696 -0.101818,0.1372815 -0.306628,0.1372815 h -0.173858 v 0.4633251 0.4633251 h 0.960971 0.96097 z"
   style="fill:#000000;stroke:#000001;stroke-width:0.0182898" /><path
   inkscape:connector-curvature="0"
   id="path881"
   d="m 10.470448,12.181499 v -0.223082 h 0.439605 c 0.451576,0 0.52262,-0.01837 0.567272,-0.14664 0.03886,-0.111633 -0.0922,-0.196564 -0.303309,-0.196564 h -0.188762 v -0.429005 -0.429004 h 0.92665 0.92665 v 0.429004 0.429005 h -0.431261 c -0.237194,0 -0.461134,0.01599 -0.497645,0.03553 -0.08955,0.04793 -0.08955,0.22422 0,0.272148 0.03943,0.0211 0.345967,0.03553 0.755048,0.03553 h 0.688664 v 0.223082 0.223083 h -1.441456 -1.441456 z"
   style="fill:#cccccc;stroke:#000001;stroke-width:0.0182898" /></svg>
