<?xml version="1.0" encoding="UTF-8" standalone="no"?>
<svg
   xmlns:dc="http://purl.org/dc/elements/1.1/"
   xmlns:cc="http://creativecommons.org/ns#"
   xmlns:rdf="http://www.w3.org/1999/02/22-rdf-syntax-ns#"
   xmlns:svg="http://www.w3.org/2000/svg"
   xmlns="http://www.w3.org/2000/svg"
   xmlns:sodipodi="http://sodipodi.sourceforge.net/DTD/sodipodi-0.dtd"
   xmlns:inkscape="http://www.inkscape.org/namespaces/inkscape"
   inkscape:version="1.0beta2 (2b71d25, 2019-12-03)"
   height="16"
   width="16"
   sodipodi:docname="reservoir.svg"
   xml:space="preserve"
   viewBox="0 0 16 16"
   y="0px"
   x="0px"
   id="Capa_1"
   version="1.1"><metadata
   id="metadata874"><rdf:RDF><cc:Work
       rdf:about=""><dc:format>image/svg+xml</dc:format><dc:type
         rdf:resource="http://purl.org/dc/dcmitype/StillImage" /><dc:title></dc:title></cc:Work></rdf:RDF></metadata><defs
   id="defs872" /><sodipodi:namedview
   inkscape:current-layer="Capa_1"
   inkscape:window-maximized="1"
   inkscape:window-y="23"
   inkscape:window-x="0"
   inkscape:cy="9.0032851"
   inkscape:cx="8.2212668"
   inkscape:zoom="27.224829"
   showgrid="false"
   id="namedview870"
   inkscape:window-height="855"
   inkscape:window-width="1440"
   inkscape:pageshadow="2"
   inkscape:pageopacity="0"
   guidetolerance="10"
   gridtolerance="10"
   objecttolerance="10"
   borderopacity="1"
   inkscape:document-rotation="0"
   bordercolor="#666666"
   pagecolor="#ffffff" />
<g
   transform="matrix(0.03931688,0,0,0.03169544,-1.7313418,0.16943749)"
   id="g837">
	<g
   id="g835">
		<path
   inkscape:connector-curvature="0"
   id="path833"
   d="M 448,88 C 448,38.656 360.152,0 248,0 135.848,0 48,38.656 48,88 c 0.009,2.686 0.277,5.365 0.8,8 H 48 v 312 c 0,49.344 87.848,88 200,88 112.152,0 200,-38.656 200,-88 V 96 h -0.8 c 0.523,-2.635 0.791,-5.314 0.8,-8 z m -16,320 c 0,34.768 -73.936,72 -184,72 C 137.936,480 64,442.768 64,408 V 363.08 C 94.24,394.488 164.352,416 248,416 c 83.648,0 153.76,-21.512 184,-52.92 z m 0,-80 c 0,34.768 -73.936,72 -184,72 C 137.936,400 64,362.768 64,328 V 283.08 C 94.24,314.488 164.352,336 248,336 c 83.648,0 153.76,-21.512 184,-52.92 z m 0,-80 c 0,34.768 -73.936,72 -184,72 C 137.936,320 64,282.768 64,248 V 203.08 C 94.24,234.488 164.352,256 248,256 c 83.648,0 153.76,-21.512 184,-52.92 z m 0,-80 c 0,34.768 -73.936,72 -184,72 C 137.936,240 64,202.768 64,168 V 123.08 C 94.24,154.488 164.352,176 248,176 c 83.648,0 153.76,-21.512 184,-52.92 z M 248,160 C 137.936,160 64,122.768 64,88 64,53.232 137.936,16 248,16 c 110.064,0 184,37.232 184,72 0,34.768 -73.936,72 -184,72 z" />
	</g>
</g>
<g
   id="g839">
</g>
<g
   id="g841">
</g>
<g
   id="g843">
</g>
<g
   id="g845">
</g>
<g
   id="g847">
</g>
<g
   id="g849">
</g>
<g
   id="g851">
</g>
<g
   id="g853">
</g>
<g
   id="g855">
</g>
<g
   id="g857">
</g>
<g
   id="g859">
</g>
<g
   id="g861">
</g>
<g
   id="g863">
</g>
<g
   id="g865">
</g>
<g
   id="g867">
</g>
<path
   inkscape:connector-curvature="0"
   id="path876"
   d="M 6.7777316,15.331734 C 3.8013915,15.170519 1.3212955,14.348722 0.88040696,13.377612 0.81920238,13.242802 0.81042865,13.131475 0.80972209,12.480715 l -8.0669e-4,-0.742983 0.3155813,0.205707 c 1.2183615,0.794168 3.5102315,1.324433 6.0681536,1.403976 2.4260001,0.07544 4.5650337,-0.173585 6.2517897,-0.727832 0.513123,-0.168606 1.226862,-0.501882 1.561075,-0.728935 l 0.220387,-0.149723 0.01068,0.68629 c 0.0065,0.420819 -0.005,0.743122 -0.02979,0.833213 -0.09643,0.350056 -0.495249,0.715003 -1.121711,1.026435 -1.600602,0.795707 -4.4322464,1.200601 -7.3073484,1.044871 z"
   style="fill:#00c7ff;stroke:#000001;stroke-width:0.00694132;fill-opacity:1" /><path
   inkscape:connector-curvature="0"
   id="path878"
   d="M 6.8383839,12.801226 C 3.7376077,12.616087 1.325407,11.823326 0.88040696,10.843161 0.81920238,10.708351 0.81042865,10.597024 0.80972209,9.9462637 L 0.8089154,9.2032812 1.1271152,9.4106943 c 1.077062,0.7020647 2.9813465,1.1941197 5.3016702,1.3699197 0.646576,0.04899 2.5470312,0.04898 3.1884307,-1.1e-5 1.6331069,-0.124743 3.1271379,-0.418646 4.1900029,-0.8242507 0.409663,-0.1563332 0.989664,-0.4498485 1.238177,-0.626592 l 0.180506,-0.1283768 0.01068,0.6888345 c 0.0066,0.422657 -0.005,0.745609 -0.02979,0.835759 -0.26253,0.953052 -2.491658,1.785823 -5.4538341,2.037477 -0.6272344,0.05329 -2.293134,0.07488 -2.914573,0.03777 z"
   style="fill:#00c7ff;fill-opacity:1;stroke:#000001;stroke-width:0.00694132" /><path
   inkscape:connector-curvature="0"
   id="path880"
   d="M 6.8375252,10.266081 C 3.7764852,10.091843 1.3241265,9.2860547 0.88040696,8.3087099 0.81918032,8.173851 0.8104289,8.0625356 0.80972209,7.40962 L 0.8089154,6.664445 1.0201197,6.8057848 C 1.350954,7.0271821 1.5328027,7.1243532 1.9475819,7.3013751 2.9177093,7.715412 4.1023681,7.9953688 5.6574307,8.1780808 6.4802597,8.2747591 8.6096072,8.3137459 9.5364211,8.2491024 11.919718,8.0828718 13.897213,7.5648732 15.005515,6.8164903 l 0.220387,-0.1488167 0.01109,0.6884639 c 0.0072,0.4459476 -0.0039,0.7402192 -0.03152,0.8353886 -0.273951,0.9446512 -2.43569,1.7667993 -5.312496,2.0204369 -0.7801977,0.06879 -2.3189284,0.09604 -3.0554498,0.05412 z"
   style="fill:#00c7ff;fill-opacity:1;stroke:#000001;stroke-width:0.00694132" /><path
   inkscape:connector-curvature="0"
   id="path882"
   d="M 6.9246563,7.7332249 C 3.8438977,7.5646647 1.385316,6.7809708 0.90340392,5.8138992 0.8112444,5.6289591 0.8089154,5.6059214 0.8089154,4.8792498 V 4.1342142 l 0.2833552,0.1849763 c 1.1181043,0.7299063 3.0659101,1.2309529 5.4249414,1.3954925 0.8235431,0.057441 3.0103818,0.025142 3.731616,-0.055115 2.114665,-0.2353139 3.808786,-0.7244432 4.730899,-1.3659125 0.127231,-0.088509 0.238802,-0.1609249 0.247935,-0.1609249 0.0381,0 0.01448,1.4278488 -0.02558,1.5464111 -0.316494,0.9367656 -2.471659,1.7487607 -5.3019013,1.997581 -0.7627729,0.067059 -2.2621869,0.095531 -2.9755254,0.056502 z"
   style="fill:#00c7ff;fill-opacity:1;stroke:#000001;stroke-width:0.00694132" /><path
   inkscape:connector-curvature="0"
   id="path884"
   d="M 6.9097798,5.193756 C 3.5255106,5.0257498 0.81052878,4.0302426 0.81052878,2.9573335 c 0,-0.7927864 1.59378112,-1.6133251 3.88071552,-1.99793892 3.2870425,-0.55281073 7.2437377,-0.21956091 9.3225287,0.78518322 0.697245,0.3369997 1.08311,0.682018 1.20033,1.0732648 0.07919,0.2643189 -0.112257,0.6366266 -0.478029,0.9296123 C 14.467809,3.9623365 13.68038,4.3518498 13.187322,4.513568 11.514134,5.062356 9.2357485,5.3092248 6.9097798,5.193756 Z"
   style="fill:#00c7ff;fill-opacity:1;stroke:#000001;stroke-width:0.00694132" /></svg>
