<?xml version="1.0" encoding="UTF-8" standalone="no"?>
<svg
   xmlns:dc="http://purl.org/dc/elements/1.1/"
   xmlns:cc="http://creativecommons.org/ns#"
   xmlns:rdf="http://www.w3.org/1999/02/22-rdf-syntax-ns#"
   xmlns:svg="http://www.w3.org/2000/svg"
   xmlns="http://www.w3.org/2000/svg"
   xmlns:sodipodi="http://sodipodi.sourceforge.net/DTD/sodipodi-0.dtd"
   xmlns:inkscape="http://www.inkscape.org/namespaces/inkscape"
   id="svg8"
   version="1.1"
   viewBox="0 0 4.2333333 4.2333333"
   height="16"
   width="16"
   sodipodi:docname="toilet.svg"
   inkscape:version="1.0 (4035a4f, 2020-05-01)">
  <defs
     id="defs841" />
  <sodipodi:namedview
     inkscape:document-rotation="0"
     pagecolor="#ffffff"
     bordercolor="#666666"
     borderopacity="1"
     objecttolerance="10"
     gridtolerance="10"
     guidetolerance="10"
     inkscape:pageopacity="0"
     inkscape:pageshadow="2"
     inkscape:window-width="1484"
     inkscape:window-height="917"
     id="namedview839"
     showgrid="false"
     inkscape:zoom="29.090343"
     inkscape:cx="4.7683556"
     inkscape:cy="8.7825004"
     inkscape:window-x="0"
     inkscape:window-y="23"
     inkscape:window-maximized="0"
     inkscape:current-layer="svg8" />
  <metadata
     id="metadata5">
    <rdf:RDF>
      <cc:Work
         rdf:about="">
        <dc:format>image/svg+xml</dc:format>
        <dc:type
           rdf:resource="http://purl.org/dc/dcmitype/StillImage" />
      </cc:Work>
    </rdf:RDF>
  </metadata>
  <path
     id="path843"
     style="fill:#ffd5d5;stroke:#000001;stroke-width:0.03;stroke-miterlimit:4;stroke-dasharray:none"
     d="M 4.1988637,2.1269417 A 2.0684969,2.0787721 0 0 1 2.1303668,4.2057137 2.0684969,2.0787721 0 0 1 0.06186986,2.1269417 2.0684969,2.0787721 0 0 1 2.1303668,0.04816961 2.0684969,2.0787721 0 0 1 4.1988637,2.1269417 Z" />
  <g
     id="g914"
     transform="matrix(0.00753161,0,0,0.00666984,0.31353734,0.54558616)">
    <g
       id="g855">
      <g
         id="g853">
        <g
           id="g851">
          <path
             id="path847"
             d="m 344,224 h -8 v -16 h 8 c 13.255,0 24,-10.745 24,-24 V 46.528 C 380.473,42.135 387.023,28.462 382.629,15.989 379.249,6.393 370.174,-0.019 360,0 H 120 C 106.776,-0.025 96.036,10.675 96.011,23.899 95.991,34.073 102.404,43.148 112,46.528 V 184 c 0,13.255 10.745,24 24,24 h 8 v 16 h -8 c -22.08,0.026 -39.974,17.92 -40,40 0,4.418 3.582,8 8,8 -0.157,53.459 31.2,101.99 80,123.816 V 472 c 0,4.418 3.582,8 8,8 h 96 c 4.418,0 8,-3.582 8,-8 v -76.184 c 48.793,-21.834 80.147,-70.36 80,-123.816 4.418,0 8,-3.582 8,-8 -0.026,-22.08 -17.92,-39.974 -40,-40 z M 112,24 c 0,-4.418 3.582,-8 8,-8 h 240 c 4.418,0 8,3.582 8,8 0,4.418 -3.582,8 -8,8 H 120 c -4.418,0 -8,-3.582 -8,-8 z m 24,168 c -4.418,0 -8,-3.582 -8,-8 V 48 h 224 v 136 c 0,4.418 -3.582,8 -8,8 z m 184,16 v 16 H 160 V 208 Z M 200,464 v -61.984 l 0.744,0.2 c 0.8,0.24 1.6,0.424 2.4,0.648 2.928,0.832 5.885,1.563 8.872,2.192 1.432,0.304 2.872,0.552 4.312,0.8 2.472,0.432 4.96,0.8 7.464,1.08 1.52,0.184 3.024,0.376 4.56,0.504 3.259,0.272 6.525,0.427 9.8,0.464 0.608,0 1.2,0.088 1.808,0.088 0.608,0 1.208,-0.08 1.816,-0.088 3.275,-0.037 6.539,-0.192 9.792,-0.464 1.536,-0.128 3.056,-0.328 4.584,-0.504 2.48,-0.296 4.944,-0.648 7.4,-1.072 1.464,-0.256 2.928,-0.52 4.384,-0.8 2.912,-0.6 5.784,-1.328 8.632,-2.128 0.888,-0.248 1.792,-0.448 2.68,-0.712 0.232,-0.072 0.48,-0.12 0.712,-0.192 L 280,464 Z m 84.96,-80.76 c -21.533,8.683 -45.117,10.956 -67.912,6.544 -7.552,-1.453 -14.94,-3.653 -22.056,-6.568 C 149.565,365.015 119.844,320.937 120,272 h 240 c 0.152,48.956 -29.59,93.046 -75.04,111.24 z M 113.368,256 c 3.403,-9.582 12.464,-15.988 22.632,-16 h 208 c 10.168,0.012 19.229,6.418 22.632,16 z" />
          <path
             id="path849"
             d="M 208,72 H 182.528 C 178.11,59.503 164.397,52.954 151.901,57.373 139.405,61.792 132.855,75.503 137.273,88 c 4.418,12.497 18.131,19.046 30.627,14.627 6.835,-2.416 12.211,-7.793 14.627,-14.627 H 208 c 4.418,0 8,-3.582 8,-8 0,-4.418 -3.582,-8 -8,-8 z m -48,16 c -4.418,0 -8,-3.582 -8,-8 0,-4.418 3.582,-8 8,-8 4.418,0 8,3.582 8,8 0,4.418 -3.582,8 -8,8 z" />
        </g>
      </g>
    </g>
    <g
       id="g857" />
    <g
       id="g859" />
    <g
       id="g861" />
    <g
       id="g863" />
    <g
       id="g865" />
    <g
       id="g867" />
    <g
       id="g869" />
    <g
       id="g871" />
    <g
       id="g873" />
    <g
       id="g875" />
    <g
       id="g877" />
    <g
       id="g879" />
    <g
       id="g881" />
    <g
       id="g883" />
    <g
       id="g885" />
  </g>
</svg>
