<?xml version="1.0" encoding="UTF-8" standalone="no"?>
<svg
   xmlns:dc="http://purl.org/dc/elements/1.1/"
   xmlns:cc="http://creativecommons.org/ns#"
   xmlns:rdf="http://www.w3.org/1999/02/22-rdf-syntax-ns#"
   xmlns:svg="http://www.w3.org/2000/svg"
   xmlns="http://www.w3.org/2000/svg"
   xmlns:sodipodi="http://sodipodi.sourceforge.net/DTD/sodipodi-0.dtd"
   xmlns:inkscape="http://www.inkscape.org/namespaces/inkscape"
   id="Layer_1"
   enable-background="new 0 0 512 512"
   height="16"
   viewBox="0 0 16 16"
   width="16"
   version="1.1"
   sodipodi:docname="watersource.svg"
   inkscape:version="1.0beta2 (2b71d25, 2019-12-03)">
  <metadata
     id="metadata846">
    <rdf:RDF>
      <cc:Work
         rdf:about="">
        <dc:format>image/svg+xml</dc:format>
        <dc:type
           rdf:resource="http://purl.org/dc/dcmitype/StillImage" />
        <dc:title />
      </cc:Work>
    </rdf:RDF>
  </metadata>
  <defs
     id="defs844" />
  <sodipodi:namedview
     pagecolor="#ffffff"
     bordercolor="#666666"
     inkscape:document-rotation="0"
     borderopacity="1"
     objecttolerance="10"
     gridtolerance="10"
     guidetolerance="10"
     inkscape:pageopacity="0"
     inkscape:pageshadow="2"
     inkscape:window-width="1440"
     inkscape:window-height="855"
     id="namedview842"
     showgrid="false"
     inkscape:zoom="23.685805"
     inkscape:cx="8.0444042"
     inkscape:cy="11.272387"
     inkscape:window-x="0"
     inkscape:window-y="23"
     inkscape:window-maximized="1"
     inkscape:current-layer="Layer_1" />
  <g
     id="g875"
     style="opacity:1">
    <path
       style="color:#000000;font-style:normal;font-variant:normal;font-weight:normal;font-stretch:normal;font-size:medium;line-height:normal;font-family:sans-serif;font-variant-ligatures:normal;font-variant-position:normal;font-variant-caps:normal;font-variant-numeric:normal;font-variant-alternates:normal;font-variant-east-asian:normal;font-feature-settings:normal;font-variation-settings:normal;text-indent:0;text-align:start;text-decoration:none;text-decoration-line:none;text-decoration-style:solid;text-decoration-color:#000000;letter-spacing:normal;word-spacing:normal;text-transform:none;writing-mode:lr-tb;direction:ltr;text-orientation:mixed;dominant-baseline:auto;baseline-shift:baseline;text-anchor:start;white-space:normal;shape-padding:0;shape-margin:0;inline-size:0;clip-rule:nonzero;display:inline;overflow:visible;visibility:visible;isolation:auto;mix-blend-mode:normal;color-interpolation:sRGB;color-interpolation-filters:linearRGB;solid-color:#000000;solid-opacity:1;vector-effect:none;fill:#00c7ff;fill-opacity:1;fill-rule:nonzero;stroke:none;stroke-width:0.188976;stroke-linecap:butt;stroke-linejoin:miter;stroke-miterlimit:4;stroke-dasharray:none;stroke-dashoffset:0;stroke-opacity:1.0;anonymous:0;color-rendering:auto;image-rendering:auto;shape-rendering:auto;text-rendering:auto;enable-background:accumulate;stop-color:#000000;stop-opacity:1;"
       d="M 0.12665814,0.16887753 H 15.874486 V 15.832268 H 0.12665814 Z"
       id="path877" />
    <path
       style="color:#000000;font-style:normal;font-variant:normal;font-weight:normal;font-stretch:normal;font-size:medium;line-height:normal;font-family:sans-serif;font-variant-ligatures:normal;font-variant-position:normal;font-variant-caps:normal;font-variant-numeric:normal;font-variant-alternates:normal;font-variant-east-asian:normal;font-feature-settings:normal;font-variation-settings:normal;text-indent:0;text-align:start;text-decoration:none;text-decoration-line:none;text-decoration-style:solid;text-decoration-color:#000000;letter-spacing:normal;word-spacing:normal;text-transform:none;writing-mode:lr-tb;direction:ltr;text-orientation:mixed;dominant-baseline:auto;baseline-shift:baseline;text-anchor:start;white-space:normal;shape-padding:0;shape-margin:0;inline-size:0;clip-rule:nonzero;display:inline;overflow:visible;visibility:visible;isolation:auto;mix-blend-mode:normal;color-interpolation:sRGB;color-interpolation-filters:linearRGB;solid-color:#000000;solid-opacity:1;vector-effect:none;fill:#000001;fill-opacity:1;fill-rule:nonzero;stroke:none;stroke-width:0.188976;stroke-linecap:butt;stroke-linejoin:miter;stroke-miterlimit:4;stroke-dasharray:none;stroke-dashoffset:0;stroke-opacity:1.0;anonymous:0;color-rendering:auto;image-rendering:auto;shape-rendering:auto;text-rendering:auto;enable-background:accumulate;stop-color:#000000;stop-opacity:1;"
       d="M 0.03125 0.07421875 L 0.03125 0.16796875 L 0.03125 15.925781 L 15.96875 15.925781 L 15.96875 0.07421875 L 0.03125 0.07421875 z M 0.22070312 0.26367188 L 15.779297 0.26367188 L 15.779297 15.738281 L 0.22070312 15.738281 L 0.22070312 0.26367188 z "
       id="path879" />
  </g>
  <g
     transform="matrix(0.02572739,0,0,0.02752224,1.4565686,1.144858)"
     id="g839">
    <path
       inkscape:connector-curvature="0"
       id="path833"
       d="m 451.136,130.281 -0.488,0.836 c -17.412,29.847 -60.535,29.855 -77.957,0.013 l -0.359,-0.614 c -17.367,-29.753 -60.792,-29.668 -78.042,0.153 -17.251,29.825 -60.685,29.904 -78.047,0.143 l -0.309,-0.531 C 198.526,100.424 155.39,100.42 137.975,130.272 l -0.494,0.846 c -17.412,29.849 -60.539,29.853 -77.958,0.008 L 59,130.23 c -8.665,-14.845 -23.824,-22.266 -38.982,-22.264 -4.917,0.001 -9.83,0.791 -14.523,2.358 C 2.217,111.419 0,114.484 0,117.941 v 71.52 c 5.559,-1.608 11.414,-2.457 17.442,-2.457 h 0.007 c 22.236,0 42.158,11.427 53.297,30.573 l 0.529,0.91 c 5.302,9.113 14.817,14.554 25.448,14.552 10.634,-10e-4 20.146,-5.444 25.447,-14.561 l 0.494,-0.85 c 11.134,-19.149 31.061,-30.583 53.302,-30.583 22.242,-10e-4 42.168,11.433 53.305,30.585 l 0.313,0.538 c 5.304,9.121 14.813,14.561 25.447,14.561 h 0.059 c 10.656,-0.02 20.169,-5.498 25.447,-14.654 11.088,-19.231 31.011,-30.739 53.297,-30.783 h 0.128 c 22.235,0 42.148,11.422 53.291,30.573 l 0.355,0.611 c 5.307,9.123 14.822,14.564 25.453,14.562 10.634,-0.001 20.146,-5.444 25.447,-14.561 l 0.494,-0.85 c 10.794,-18.564 30.518,-29.65 52.756,-29.65 6.982,0 13.804,1.116 20.243,3.2 v -71.728 c 0,-3.303 -2.008,-6.319 -5.104,-7.471 -19.894,-7.394 -44.115,-1.66 -55.761,18.303 z" />
    <path
       inkscape:connector-curvature="0"
       id="path835"
       d="m 466.855,233.828 -0.494,0.85 c -11.134,19.147 -31.057,30.581 -53.296,30.583 h -0.007 c -22.236,0.002 -42.158,-11.427 -53.296,-30.572 l -0.357,-0.612 c -5.308,-9.124 -14.816,-14.562 -25.447,-14.562 h -0.061 c -10.656,0.021 -20.168,5.499 -25.446,14.654 -11.088,19.233 -31.013,30.74 -53.302,30.782 -0.04,0 -0.082,0 -0.122,0 -22.242,10e-4 -42.158,-11.427 -53.298,-30.586 l -0.313,-0.537 c -5.302,-9.117 -14.817,-14.561 -25.451,-14.561 -10.634,0 -20.147,5.443 -25.449,14.561 l -0.494,0.85 c -11.133,19.147 -31.057,30.581 -53.296,30.583 H 96.72 C 74.484,265.263 54.562,253.834 43.424,234.689 l -0.53,-0.91 c -5.302,-9.114 -14.817,-14.555 -25.448,-14.553 -6.463,0 -12.505,2.022 -17.446,5.647 v 71.42 c 5.558,-1.608 11.413,-2.457 17.441,-2.458 h 0.008 c 22.235,0 42.159,11.428 53.296,30.572 l 0.53,0.911 c 5.302,9.113 14.817,14.554 25.449,14.553 10.633,-0.002 20.145,-5.445 25.446,-14.561 l 0.494,-0.85 c 11.134,-19.149 31.061,-30.583 53.302,-30.583 22.242,0 42.168,11.433 53.305,30.585 l 0.313,0.538 c 5.304,9.121 14.813,14.561 25.447,14.561 h 0.059 c 10.656,-0.02 20.169,-5.498 25.447,-14.654 11.088,-19.231 31.011,-30.738 53.297,-30.782 h 0.128 c 22.234,0 42.148,11.421 53.291,30.572 l 0.355,0.611 c 5.307,9.123 14.822,14.564 25.454,14.563 10.633,-0.002 20.145,-5.445 25.446,-14.561 l 0.494,-0.85 c 10.794,-18.565 30.516,-29.649 52.756,-29.649 6.982,0 13.804,1.116 20.243,3.2 v -70.969 c -5.605,-4.344 -12.722,-6.841 -20.243,-6.841 -5.106,0 -17.751,1.328 -24.903,13.627 z" />
    <path
       inkscape:connector-curvature="0"
       id="path837"
       d="m 466.855,340.659 -0.494,0.849 c -11.133,19.147 -31.057,30.581 -53.295,30.584 h -0.008 c -22.235,0 -42.159,-11.429 -53.296,-30.572 l -0.357,-0.612 c -5.308,-9.124 -14.816,-14.562 -25.447,-14.562 h -0.061 c -10.656,0.021 -20.168,5.499 -25.446,14.654 -11.088,19.233 -31.013,30.74 -53.302,30.781 -0.04,10e-4 -0.082,10e-4 -0.122,10e-4 -22.242,0 -42.158,-11.427 -53.298,-30.586 l -0.313,-0.537 c -5.302,-9.117 -14.817,-14.561 -25.451,-14.561 -10.634,0 -20.147,5.443 -25.449,14.561 l -0.494,0.849 c -11.133,19.147 -31.057,30.581 -53.295,30.584 H 96.72 c -22.235,0 -42.159,-11.429 -53.296,-30.572 l -0.53,-0.91 C 37.592,331.496 28.077,326.056 17.445,326.057 10.982,326.058 4.94,328.079 0,331.704 v 52.219 c 0,11.152 9.04,20.192 20.192,20.192 h 471.615 c 11.152,0 20.192,-9.04 20.192,-20.192 v -50.049 c -5.605,-4.344 -12.722,-6.841 -20.243,-6.841 -5.104,-0.001 -17.749,1.327 -24.901,13.626 z" />
  </g>
</svg>
